<?xml version="1.0" ?><svg viewBox="0 0 64 64" xmlns="http://www.w3.org/2000/svg"><defs><style>.cls-1{fill:none;stroke:#000;stroke-miterlimit:10;stroke-width:2px;}</style></defs><title/><g data-name="Layer 2" id="Layer_2"><path class="cls-1" d="M48.92,4H38.35a.76.76,0,0,0-.67.41L32.25,14.88a.76.76,0,0,1-.67.41H15.08a.76.76,0,0,0-.76.76V28.81a.76.76,0,0,0,.76.76h8.3A.76.76,0,0,1,24,30.68L14.41,49.26a.76.76,0,0,0-.09.35v9.63a.76.76,0,0,0,.76.76H25.65a.76.76,0,0,0,.67-.41l5.15-9.76a.76.76,0,0,1,.67-.41H48.92a.76.76,0,0,0,.76-.76V35.9a.76.76,0,0,0-.76-.76H40.47A.76.76,0,0,1,39.8,34l9.79-18.58a.76.76,0,0,0,.09-.35V4.76A.76.76,0,0,0,48.92,4Z"/></g></svg>